<svg width="58px" height="58px" viewBox="0 0 1024 1024" xmlns="http://www.w3.org/2000/svg"><path d="M512.001 656.62c-43.44 0-80.089-36.878-80.089-81.092 0-43.584 36.65-81.123 80.089-81.123s80.089 37.539 80.089 81.123c0 44.214-36.65 81.092-80.089 81.092zM626.706 462.255c-30.544-30.173-71.266-46.248-114.705-46.248-28.51 0-54.308 10.030-76.692 30.142l-3.398 2.694v-220.725h-82.128v479.34c11.624-10.025 26.364-15.389 41.803-15.389 16.896 0 32.227 6.665 43.512 17.432l0.010-0.046c24.433 23.467 52.459 25.592 76.892 25.592 42.755 0 83.482-16.106 114.705-46.248 30.539-30.833 47.512-71.067 47.512-113.273 0-42.237-16.973-82.44-47.512-113.273zM362.422 783.241c-8.126-8.486-12.64-19.5-12.64-30.697 0-11.379 4.514-22.399 12.64-30.707 8.309-7.944 19.146-12.458 30.702-12.458 11.921 0 22.758 4.514 30.52 12.458 8.309 8.309 12.823 19.146 12.823 30.707 0 11.556-4.514 22.388-12.823 30.697-8.126 8.132-18.963 12.64-30.52 12.64-11.197 0-22.211-4.509-30.702-12.64z" style="fill: rgb(232, 63, 64);"></path></svg>